<?xml version="1.0" encoding="utf-8"?>
<!-- Generator: Adobe Illustrator 21.0.0, SVG Export Plug-In . SVG Version: 6.00 Build 0)  -->
<svg version="1.1" id="logo" xmlns="http://www.w3.org/2000/svg" xmlns:xlink="http://www.w3.org/1999/xlink" x="0px" y="0px"
	 viewBox="0 0 637 326" style="enable-background:new 0 0 637 326;" xml:space="preserve">
<style type="text/css">
	.st0{fill:#FFFFFF;}
	.st1{fill:#FCFCFC;}
	.st2{fill:#F95E08;}
</style>
<g id="DREAM">
	<path class="st0" d="M12.1,167.5h37.8c15.4,0,26.9,2.1,34.4,6.4c7.6,4.3,14.3,11,20.3,20.2c6,9.2,9,20.9,9,35
		c0,17.7-5.2,32.5-15.7,44.4c-10.5,11.9-24.9,17.8-43.2,17.8H12.1V167.5z M40.6,190.2V268h11.9c10.6,0,18.4-3.9,23.5-11.8
		c5.1-7.9,7.7-17.2,7.7-27.8c0-7.5-1.5-14.4-4.4-20.8s-6.6-10.9-10.9-13.4c-4.3-2.6-9.6-3.9-15.7-3.9H40.6z"/>
	<path class="st0" d="M161.8,242.2v49.1h-29.2V167.5H187c10,0,18.1,1.2,24.2,3.5c6.1,2.3,11.1,6.6,15.1,12.8c4,6.2,6,13.1,6,20.8
		c0,14.9-7.2,25.5-21.5,32l22.9,54.7h-32l-19-49.1H161.8z M161.8,189.5v31.6h17.8c5.8,0,10-0.4,12.7-1.2c2.6-0.8,5-2.6,7-5.4
		c2.1-2.8,3.1-6,3.1-9.7c0-3.4-1-6.5-3.1-9.3c-2.1-2.7-4.3-4.4-6.7-5c-2.4-0.6-7-1-13.6-1H161.8z"/>
	<path class="st0" d="M343.1,191h-59v25.4h46.3v23.3h-46.3v27h59v24.5h-88.4V167.5h88.4V191z"/>
	<path class="st0" d="M421.3,167.5l38.8,123.8h-31.2l-7.6-25.5h-40l-7.8,25.5h-25.4l39.7-123.8H421.3z M388.2,242.9h26.2l-13-43.4
		L388.2,242.9z"/>
	<path class="st0" d="M528.3,291.3l-30.5-100.9v100.9h-24.3V167.5h45.2l21.7,74.1l22.9-74.1h45.3v123.8h-29.2V190.3l-31.1,100.9
		H528.3z"/>
</g>
<g id="lifeis">
	<path class="st1" d="M11.1,12h31.1v131.3H11.1V12z"/>
	<path class="st1" d="M96.3,38.2H64.8V11.4h31.6V38.2z M65,46.2h31.1v97.2H65V46.2z"/>
	<path class="st1" d="M154.1,46.2h19.7v21.4h-19.7v75.8h-29.8V67.5h-12.7V46.2h12.7c0.1-9.6,0.9-16.7,2.5-21.5
		c1.6-4.7,5.1-8.9,10.5-12.5c5.4-3.6,12.7-5.4,22-5.4c5.4,0,10.7,0.3,15.7,1V29c-2.5-0.3-4.8-0.4-7-0.4c-6,0-9.8,1.1-11.4,3.3
		S154.1,38.9,154.1,46.2z"/>
	<path class="st1" d="M271.1,99.3h-58.4v5.4c0,8.7,1.4,14.5,4.1,17.4c2.7,2.9,6.3,4.4,10.7,4.4c9.5,0,14.8-5.5,16-16.5l27.7,1.5
		c-4.9,22.6-19.7,33.9-44.2,33.9c-15.1,0-26.7-4.5-34.5-13.4c-7.9-8.9-11.8-20.8-11.8-35.8c0-16.9,4.2-29.7,12.5-38.6
		c8.3-8.9,19.5-13.3,33.6-13.3c12.6,0,23.2,3.9,31.7,11.8C266.9,63.9,271.1,78.3,271.1,99.3z M241.7,83.6c0.1-1.2,0.1-2.1,0.1-2.7
		c0-12.5-4.8-18.8-14.5-18.8c-9.5,0-14.3,7.2-14.4,21.5H241.7z"/>
	<path class="st1" d="M362.8,38.2h-31.6V11.4h31.6V38.2z M331.4,46.2h31.1v97.2h-31.1V46.2z"/>
	<path class="st1" d="M458.9,69.6l-22.2,5.8c-2.9-8.8-8.4-13.2-16.3-13.2c-6.5,0-9.7,2.8-9.7,8.5c0,3.2,1.2,5.6,3.6,7.3
		c2.4,1.7,7.4,3.7,15,6c8.5,2.6,14.8,4.9,18.8,6.9c4,2,7.3,5,10,9c2.7,4,4.1,8.6,4.1,13.8c0,9-3.7,16.5-11.2,22.6
		c-7.4,6.1-17.8,9.1-31.1,9.1c-25.1,0-39-9.7-41.7-29l24.7-3.5c2.1,9.7,7.9,14.5,17.6,14.5c8.2,0,12.4-3,12.4-9
		c0-3.2-1.2-5.6-3.6-7.3c-2.4-1.7-7.1-3.5-14.1-5.4c-12.8-3.6-21.6-7.9-26.4-13c-4.8-5.1-7.2-10.9-7.2-17.6
		c0-9.4,3.8-16.9,11.3-22.5c7.5-5.6,17-8.5,28.3-8.5C441,44.2,453.6,52.6,458.9,69.6z"/>
</g>
<g id="a">
	<path class="st2" d="M610.8,43.4v100h-12.7v-17.2c-5.4,6.6-11.4,11.5-18.1,14.8s-14,5-22,5c-14.1,0-26.2-5.1-36.2-15.4
		c-10-10.3-15-22.7-15-37.4c0-14.4,5.1-26.7,15.2-36.9c10.1-10.2,22.3-15.3,36.5-15.3c8.2,0,15.6,1.7,22.3,5.2
		c6.6,3.5,12.5,8.7,17.5,15.7V43.4H610.8z M559.4,53.2c-7.2,0-13.8,1.8-19.8,5.3c-6.1,3.5-10.9,8.5-14.5,14.8
		c-3.6,6.4-5.4,13.1-5.4,20.2c0,7,1.8,13.8,5.4,20.2c3.6,6.4,8.5,11.4,14.5,15c6.1,3.6,12.6,5.4,19.6,5.4c7,0,13.7-1.8,20-5.3
		c6.3-3.5,11.1-8.4,14.5-14.4c3.4-6.1,5.1-12.9,5.1-20.5c0-11.6-3.8-21.2-11.4-29C579.9,57.1,570.5,53.2,559.4,53.2z"/>
</g>
</svg>
