

<svg
  
   width="132mm"
   height="52mm"
   viewBox="0 0 132 52"
   version="1.1"
   id="logoG"
  
   inkscape:export-xdpi="300"
   inkscape:export-ydpi="300">
  
  
  
  <g
     inkscape:label="Layer 1"
     inkscape:groupmode="layer"
     id="layer1"
     transform="translate(0,-245)">
    <g
       id="g856"
       transform="translate(-8.8470234,115.09166)">
      <g
         transform="translate(-1.5875,4.2333335)"
         id="text864-4-7-9"
         style="font-style:normal;font-variant:normal;font-weight:normal;font-stretch:normal;font-size:44.9814949px;line-height:1.25;font-family:'Century Gothic';-inkscape-font-specification:'Century Gothic';letter-spacing:0px;word-spacing:0px;fill:#ffff00;fill-opacity:1;stroke:none;stroke-width:1.12453723"
         aria-label="rzeh">
        <path
           inkscape:connector-curvature="0"
           id="path837"
           style="font-style:normal;font-variant:normal;font-weight:bold;font-stretch:normal;font-family:'Century Gothic';-inkscape-font-specification:'Century Gothic Bold';letter-spacing:-1.27519536px;fill:#ffff00;stroke-width:1.12453723"
           d="m 58.867007,140.3275 h 5.139487 v 3.00902 q 0.834618,-1.77905 2.218326,-2.70153 1.383708,-0.92247 3.03098,-0.92247 1.164072,0 2.437962,0.61498 l -1.866908,5.16145 q -1.054254,-0.52712 -1.735126,-0.52712 -1.383708,0 -2.350108,1.71316 -0.944435,1.71316 -0.944435,6.72087 l 0.02196,1.16407 v 9.66399 h -5.952141 z" />
        <path
           inkscape:connector-curvature="0"
           id="path839"
           style="font-style:normal;font-variant:normal;font-weight:bold;font-stretch:normal;font-family:'Century Gothic';-inkscape-font-specification:'Century Gothic Bold';letter-spacing:-1.27519536px;fill:#ffff00;stroke-width:1.12453723"
           d="m 72.373329,140.3275 h 18.339623 l -10.762174,18.82283 h 10.147193 v 5.07359 H 70.726057 L 81.532159,145.4011 h -9.15883 z" />
        <path
           inkscape:connector-curvature="0"
           id="path841"
           style="font-style:normal;font-variant:normal;font-weight:bold;font-stretch:normal;font-family:'Century Gothic';-inkscape-font-specification:'Century Gothic Bold';letter-spacing:-1.27519536px;fill:#ffff00;stroke-width:1.12453723"
           d="M 116.80443,154.01084 H 97.542334 q 0.417309,2.54778 2.218326,4.06327 1.82298,1.49353 4.63432,1.49353 3.36044,0 5.77644,-2.35011 l 5.05163,2.37207 q -1.88887,2.67956 -4.52451,3.97541 -2.63563,1.27389 -6.25963,1.27389 -5.622686,0 -9.158829,-3.53614 -3.536143,-3.55811 -3.536143,-8.89527 0,-5.46894 3.514179,-9.07097 3.536143,-3.624 8.851343,-3.624 5.64465,0 9.18079,3.624 3.53614,3.60203 3.53614,9.53221 z m -6.01803,-4.72218 q -0.59302,-1.99869 -2.35011,-3.25062 -1.73513,-1.25192 -4.04131,-1.25192 -2.50385,0 -4.39272,1.40567 -1.186036,0.87855 -2.196363,3.09687 z" />
        <path
           inkscape:connector-curvature="0"
           id="path843"
           style="font-style:normal;font-variant:normal;font-weight:bold;font-stretch:normal;font-family:'Century Gothic';-inkscape-font-specification:'Century Gothic Bold';letter-spacing:-1.27519536px;fill:#ffff00;stroke-width:1.12453723"
           d="m 120.42712,131.10278 h 5.95214 v 11.64072 q 1.75709,-1.51549 3.53614,-2.26225 1.77906,-0.76873 3.60204,-0.76873 3.5581,0 5.99607,2.45993 2.08654,2.13047 2.08654,6.25963 v 15.79184 h -5.90821 v -10.47664 q 0,-4.15113 -0.39535,-5.62269 -0.39534,-1.47156 -1.36174,-2.19636 -0.94444,-0.7248 -2.35011,-0.7248 -1.82298,0 -3.1408,1.208 -1.29585,1.208 -1.80102,3.29454 -0.26356,1.07622 -0.26356,4.91985 v 9.5981 h -5.95214 z" />
      </g>
      <g
         transform="translate(0,7.4083404)"
         id="text819-2-3-8"
         style="font-style:normal;font-variant:normal;font-weight:normal;font-stretch:normal;font-size:66.08599854px;line-height:1.25;font-family:'Adobe Song Std';-inkscape-font-specification:'Adobe Song Std';letter-spacing:0px;word-spacing:0px;fill:#ffff00;fill-opacity:1;stroke:none;stroke-width:1.65215003"
         aria-label="G">
        <path
           inkscape:connector-curvature="0"
           id="path846"
           style="font-style:normal;font-variant:normal;font-weight:normal;font-stretch:normal;font-family:'Showcard Gothic';-inkscape-font-specification:'Showcard Gothic';fill:#ffff00;stroke-width:1.65215003"
           d="m 53.018165,151.80753 q -0.322686,2.74282 -0.968057,10.3582 -0.322685,4.54987 -0.613102,10.7777 -4.323987,1.25847 -12.617005,1.25847 -12.326588,0 -20.038772,-5.55019 -9.0997323,-6.61505 -9.0997323,-19.68382 0,-12.5202 7.9703333,-19.55474 7.486304,-6.61505 19.716086,-6.61505 4.614403,0 9.906446,0.7099 l 1.774771,20.36146 q -2.129725,-0.80671 -6.066489,-0.80671 -5.001625,0 -9.035195,3.06551 -4.517597,3.45273 -4.517597,8.77705 0,5.03389 3.839958,7.77672 3.226855,2.32333 7.454036,2.19426 l -0.516297,-6.48598 q -0.193612,-2.00065 -0.871251,-6.58278 z" />
      </g>
    </g>
  </g>
</svg>
